<svg width="493" height="454" viewBox="0 0 493 454" fill="none" xmlns="http://www.w3.org/2000/svg">
    <path d="M2.24924 453.147C1.98641 453.233 1.7266 453.084 1.66894 452.815L0.729333 448.421C0.671674 448.151 0.838001 447.863 1.10084 447.777C1.36367 447.691 1.62348 447.84 1.68114 448.109L2.51634 452.015L6.32357 450.769C6.5864 450.683 6.84621 450.832 6.90387 451.102C6.96153 451.372 6.7952 451.66 6.53237 451.746L2.24924 453.147ZM1.7345 452.424C9.76673 438.501 23.8733 426.841 42.279 416.777C60.6905 406.71 83.455 398.213 108.869 390.644C159.691 375.508 221.22 364.053 279.887 351.2C338.586 338.339 394.41 324.08 433.931 303.343C453.689 292.975 469.323 281.014 479.209 266.844C489.08 252.696 493.248 236.308 490.02 217.003L490.981 216.736C494.253 236.307 490.025 252.995 479.976 267.399C469.942 281.78 454.133 293.845 434.299 304.252C394.637 325.063 338.683 339.345 279.999 352.202C221.284 365.067 159.827 376.507 109.052 391.629C83.6683 399.189 60.9817 407.661 42.6632 417.677C24.3388 427.697 10.4366 439.233 2.55518 452.894L1.7345 452.424ZM490.02 217.003C483.547 178.288 462.925 154.812 436.998 142.276C411.054 129.732 379.781 128.138 352.04 133.249C324.277 138.365 300.171 150.175 288.495 164.31C282.673 171.358 279.972 178.942 281.375 186.568C282.782 194.217 288.338 202.027 299.289 209.431L298.71 210.308C287.661 202.837 281.889 194.85 280.417 186.851C278.941 178.829 281.811 170.912 287.785 163.68C299.703 149.252 324.098 137.374 351.96 132.24C379.845 127.102 411.321 128.694 437.471 141.338C463.638 153.99 484.454 177.701 490.981 216.736L490.02 217.003ZM299.289 209.431C321.186 224.236 341.681 224.338 357.408 214.89C373.154 205.431 384.261 186.317 387.225 162.404C393.151 114.599 366.473 47.741 279.418 1.76764L279.917 0.842819C367.195 46.9336 394.183 114.108 388.191 162.443C385.197 186.6 373.95 206.085 357.83 215.768C341.693 225.463 320.813 225.253 298.71 210.308L299.289 209.431Z" fill="url(#paint0_linear_784_72711)"/>
    <defs>
        <linearGradient id="paint0_linear_784_72711" x1="471.983" y1="123.678" x2="-42.9842" y2="226.384" gradientUnits="userSpaceOnUse">
            <stop stop-color="#FFC787"/>
            <stop offset="1" stop-color="#E0A6F4"/>
        </linearGradient>
    </defs>
</svg>
